<?xml version="1.0" encoding="utf-8"?>
<!-- Generator: Adobe Illustrator 24.3.0, SVG Export Plug-In . SVG Version: 6.00 Build 0)  -->
<svg version="1.1" id="Layer_1" xmlns="http://www.w3.org/2000/svg" xmlns:xlink="http://www.w3.org/1999/xlink" x="0px" y="0px"
	 viewBox="0 0 55.6 56.5" style="enable-background:new 0 0 55.6 56.5;" xml:space="preserve">
<style type="text/css">
	.st0{fill:#282748;}
	.st1{fill:#EBEBF7;}
	.st2{fill:#F6C042;}
</style>
<g>
	<g>
		<polygon class="st0" points="16.5,55.6 55,55.5 55,0 25.3,0 		"/>
		<path class="st0" d="M47.3,8.1L41,14.4l-41,41V27.5c0-7.1,2.7-13.7,7.2-18.6c0.3-0.3,0.6-0.6,0.9-1c0.2-0.2,0.3-0.3,0.5-0.5
			c0.3-0.3,0.7-0.6,1-0.9c0.5-0.4,1-0.8,1.5-1.2l0,0c0.7-0.5,1.4-1,2.1-1.4l0,0c0.6-0.3,1.2-0.7,1.8-1c0.4-0.2,0.8-0.4,1.2-0.6
			s0.8-0.4,1.2-0.5c0.2-0.1,0.4-0.2,0.6-0.2c0.2-0.1,0.4-0.2,0.6-0.2c0.2-0.1,0.4-0.1,0.6-0.2c0.4-0.1,0.9-0.3,1.3-0.4
			c0.2-0.1,0.4-0.1,0.7-0.2c0.2-0.1,0.4-0.1,0.7-0.1c0.2,0,0.5-0.1,0.7-0.1s0.4-0.1,0.7-0.1l0,0c0.2,0,0.4-0.1,0.7-0.1
			c0.2,0,0.5-0.1,0.7-0.1s0.5,0,0.7-0.1c0.2,0,0.4,0,0.6,0c0.1,0,0.2,0,0.4,0h0.1c0.3,0,0.7,0,1,0l0,0c3.1,0,6.1,0.5,8.9,1.5
			C40.6,2.8,44.3,5.1,47.3,8.1z"/>
		<path class="st1" d="M55.5,7.8v48.7H27.6l0,0l0,0l0,0c0-0.1,0-0.3,0-0.4V35.4c0-0.4,0-0.7,0-1c0-0.7,0.1-1.4,0.2-2.1
			c0.1-1.1,0.3-2.2,0.6-3.3c0.2-0.9,0.5-1.7,0.8-2.6c2.5-7.2,7.9-13.1,14.8-16.2c0.8-0.4,1.6-0.7,2.4-1c2.4-0.8,5-1.4,7.7-1.5h1.4
			V7.8z"/>
		<polygon class="st2" points="55.5,21.6 55.5,0 33.8,0 		"/>
		<polygon class="st0" points="55.6,56.5 27,56.5 27,27.9 		"/>
		<rect y="29.8" class="st0" width="27.4" height="26.7"/>
	</g>
</g>
</svg>
